<svg width="141" height="141" viewBox="0 0 141 141" fill="none" xmlns="http://www.w3.org/2000/svg">
<g clip-path="url(#clip0_9_262)">
<path d="M53.125 18L42.3738 29.75H23.75C17.2875 29.75 12 35.0375 12 41.5V112C12 118.463 17.2875 123.75 23.75 123.75H117.75C124.213 123.75 129.5 118.463 129.5 112V41.5C129.5 35.0375 124.213 29.75 117.75 29.75H99.1263L88.375 18H53.125ZM70.75 106.125C54.535 106.125 41.375 92.965 41.375 76.75C41.375 60.535 54.535 47.375 70.75 47.375C86.965 47.375 100.125 60.535 100.125 76.75C100.125 92.965 86.965 106.125 70.75 106.125Z" fill="#35825E"/>
<g clip-path="url(#clip1_9_262)">
<path d="M71 76.9375C74.1242 76.9375 76.8842 77.685 79.1267 78.6625C81.1967 79.5825 82.5 81.6525 82.5 83.895V87H59.5V83.9142C59.5 81.6525 60.8033 79.5825 62.8733 78.6817C65.1158 77.685 67.8758 76.9375 71 76.9375ZM55.6667 77.4167C57.775 77.4167 59.5 75.6917 59.5 73.5833C59.5 71.475 57.775 69.75 55.6667 69.75C53.5583 69.75 51.8333 71.475 51.8333 73.5833C51.8333 75.6917 53.5583 77.4167 55.6667 77.4167ZM57.8325 79.525C57.1233 79.41 56.4142 79.3333 55.6667 79.3333C53.7692 79.3333 51.9675 79.7358 50.3383 80.445C48.92 81.0583 48 82.4383 48 83.9908V87H56.625V83.9142C56.625 82.3233 57.0658 80.8283 57.8325 79.525ZM86.3333 77.4167C88.4417 77.4167 90.1667 75.6917 90.1667 73.5833C90.1667 71.475 88.4417 69.75 86.3333 69.75C84.225 69.75 82.5 71.475 82.5 73.5833C82.5 75.6917 84.225 77.4167 86.3333 77.4167ZM94 83.9908C94 82.4383 93.08 81.0583 91.6617 80.445C90.0325 79.7358 88.2308 79.3333 86.3333 79.3333C85.5858 79.3333 84.8767 79.41 84.1675 79.525C84.9342 80.8283 85.375 82.3233 85.375 83.9142V87H94V83.9908ZM71 64C74.1817 64 76.75 66.5683 76.75 69.75C76.75 72.9317 74.1817 75.5 71 75.5C67.8183 75.5 65.25 72.9317 65.25 69.75C65.25 66.5683 67.8183 64 71 64Z" fill="#35825E"/>
</g>
</g>
<defs>
<clipPath id="clip0_9_262">
<rect width="141" height="141" fill="white"/>
</clipPath>
<clipPath id="clip1_9_262">
<rect width="46" height="46" fill="white" transform="translate(48 53)"/>
</clipPath>
</defs>
</svg>
